# xmcd
#
# Track frame offsets:
#	150
#	22259
#	43451
#	62563
#	86120
#	101860
#	121738
#	137435
#	156996
#	174370
#
# Disc length: 2570 seconds
#
# Revision: 4
# Processed by: cddbd v1.5.2PL0 Copyright (c) Steve Scherf et al.
# Submitted via: EasyCDDAExtractor 15.3.0.1
#
DISCID=890a080a
DTITLE=Eduardo Verastegui
DYEAR=2001
DGENRE=Latin
TTITLE0=Yo No Se Perder
TTITLE1=Estoy Aqui Por Ti
TTITLE2=Tequila
TTITLE3=Vivo La Locura
TTITLE4=Las Luces De La Ciudad
TTITLE5=Por Ti
TTITLE6=Baila
TTITLE7=Por La Falta De Tu Amor
TTITLE8=A Partir De Hoy
TTITLE9=Suave
EXTD=
EXTT0=
EXTT1=
EXTT2=
EXTT3=
EXTT4=
EXTT5=
EXTT6=
EXTT7=
EXTT8=
EXTT9=
PLAYORDER=
